<?xml version="1.0" encoding="UTF-8"?>
<svg width="240" height="240" viewBox="0 0 240 240" xmlns="http://www.w3.org/2000/svg">
    <defs>
        <!-- 高级蓝色渐变 -->
    <defs>
        <!-- 保持渐变不变 -->
        <linearGradient id="premiumBlue" x1="0%" y1="0%" x2="100%" y2="100%">
            <stop offset="0%" stop-color="#1e40af" />
            <stop offset="50%" stop-color="#2563eb" />
            <stop offset="100%" stop-color="#3b82f6" />
        </linearGradient>

        <linearGradient id="lightBlue" x1="0%" y1="0%" x2="100%" y2="0%">
            <stop offset="0%" stop-color="#bfdbfe" />
            <stop offset="50%" stop-color="#dbeafe" />
            <stop offset="100%" stop-color="#e0f2fe" />
        </linearGradient>
    </defs>

    <!-- 背景部分保持不变 -->
    <rect width="240" height="240" fill="white" />
    <rect x="60" y="60" width="120" height="120" rx="12" fill="#f8fafc" 
          filter="drop-shadow(0 4px 6px rgba(0, 0, 0, 0.05))" />

        <!-- 淡蓝色渐变 -->
        <linearGradient id="lightBlue" x1="0%" y1="0%" x2="100%" y2="0%">
            <stop offset="0%" stop-color="#bfdbfe" />
            <stop offset="100%" stop-color="#dbeafe" />
        </linearGradient>
    </defs>

    <!-- 整体背景 -->
    <rect width="240" height="240" fill="white" />

    <!-- 内容区域背景 - 居中定位 -->
    <rect x="60" y="60" width="120" height="120" rx="8" fill="#f8fafc" />

    <!-- 清晰明确的"J"设计 - 结合内容管理图标元素，垂直居中 -->
    <g transform="translate(90, 82.5)">
        <!-- 主体J形状 -->
        <path
            d="M0,0 L50,0 C55,0 60,5 60,10 L60,50 C60,65 50,75 35,75 L0,75 L0,60 L30,60 C35,60 40,55 40,50 L40,20 L0,20 Z"
            fill="url(#premiumBlue)" />

        <!-- 内容标识线条 - 暗示CMS内容编辑功能 -->
        <rect x="15" y="30" width="30" height="6" rx="3" fill="url(#lightBlue)" />
        <rect x="15" y="42" width="20" height="6" rx="3" fill="url(#lightBlue)" />
    </g>
</svg>